solid OpenSCAD_Model
  facet normal -1.000000 0.000000 0.000000
    outer loop
      vertex -12.000000 3.000000 12.000000
      vertex -12.000000 3.000000 9.250000
      vertex -12.000000 0.000000 12.000000
    endloop
  endfacet
  facet normal -1.000000 0.000000 0.000000
    outer loop
      vertex -12.000000 0.000000 12.000000
      vertex -12.000000 3.000000 9.250000
      vertex -12.000000 3.000000 2.750000
    endloop
  endfacet
  facet normal -1.000000 0.000000 0.000000
    outer loop
      vertex -12.000000 0.000000 12.000000
      vertex -12.000000 3.000000 2.750000
      vertex -12.000000 3.000000 0.000000
    endloop
  endfacet
  facet normal -1.000000 0.000000 0.000000
    outer loop
      vertex -12.000000 0.000000 12.000000
      vertex -12.000000 3.000000 0.000000
      vertex -12.000000 0.000000 0.000000
    endloop
  endfacet
  facet normal 0.000000 -1.000000 0.000000
    outer loop
      vertex -8.500000 0.000000 2.750000
      vertex -12.000000 0.000000 0.000000
      vertex 12.000000 0.000000 0.000000
    endloop
  endfacet
  facet normal 0.000000 -1.000000 0.000000
    outer loop
      vertex -6.500000 0.000000 9.250000
      vertex -12.000000 0.000000 12.000000
      vertex -8.500000 0.000000 9.250000
    endloop
  endfacet
  facet normal 0.000000 -1.000000 0.000000
    outer loop
      vertex -6.500000 0.000000 2.750000
      vertex -8.500000 0.000000 2.750000
      vertex 12.000000 0.000000 0.000000
    endloop
  endfacet
  facet normal 0.000000 -1.000000 0.000000
    outer loop
      vertex -12.000000 0.000000 12.000000
      vertex -12.000000 0.000000 0.000000
      vertex -8.500000 0.000000 2.750000
    endloop
  endfacet
  facet normal 0.000000 -1.000000 0.000000
    outer loop
      vertex -12.000000 0.000000 12.000000
      vertex -8.500000 0.000000 2.750000
      vertex -8.500000 0.000000 9.250000
    endloop
  endfacet
  facet normal 0.000000 -1.000000 0.000000
    outer loop
      vertex 12.000000 0.000000 12.000000
      vertex -12.000000 0.000000 12.000000
      vertex -6.500000 0.000000 9.250000
    endloop
  endfacet
  facet normal 0.000000 -1.000000 0.000000
    outer loop
      vertex -3.500000 0.000000 2.750000
      vertex -6.500000 0.000000 2.750000
      vertex 12.000000 0.000000 0.000000
    endloop
  endfacet
  facet normal 0.000000 -1.000000 0.000000
    outer loop
      vertex -1.500000 0.000000 2.750000
      vertex -3.500000 0.000000 2.750000
      vertex 12.000000 0.000000 0.000000
    endloop
  endfacet
  facet normal 0.000000 -1.000000 0.000000
    outer loop
      vertex 1.500000 0.000000 2.750000
      vertex 1.500000 0.000000 9.250000
      vertex -1.500000 0.000000 9.250000
    endloop
  endfacet
  facet normal 0.000000 -1.000000 0.000000
    outer loop
      vertex 12.000000 0.000000 12.000000
      vertex -6.500000 0.000000 9.250000
      vertex -3.500000 0.000000 9.250000
    endloop
  endfacet
  facet normal 0.000000 -1.000000 0.000000
    outer loop
      vertex 8.500000 0.000000 9.250000
      vertex 8.500000 0.000000 2.750000
      vertex 12.000000 0.000000 0.000000
    endloop
  endfacet
  facet normal 0.000000 -1.000000 0.000000
    outer loop
      vertex 12.000000 0.000000 12.000000
      vertex -3.500000 0.000000 9.250000
      vertex -1.500000 0.000000 9.250000
    endloop
  endfacet
  facet normal 0.000000 -1.000000 0.000000
    outer loop
      vertex 1.500000 0.000000 2.750000
      vertex -1.500000 0.000000 2.750000
      vertex 12.000000 0.000000 0.000000
    endloop
  endfacet
  facet normal 0.000000 -1.000000 0.000000
    outer loop
      vertex 3.500000 0.000000 2.750000
      vertex 1.500000 0.000000 2.750000
      vertex 12.000000 0.000000 0.000000
    endloop
  endfacet
  facet normal 0.000000 -1.000000 0.000000
    outer loop
      vertex 8.500000 0.000000 2.750000
      vertex 6.500000 0.000000 2.750000
      vertex 12.000000 0.000000 0.000000
    endloop
  endfacet
  facet normal 0.000000 -1.000000 0.000000
    outer loop
      vertex 12.000000 0.000000 12.000000
      vertex -1.500000 0.000000 9.250000
      vertex 1.500000 0.000000 9.250000
    endloop
  endfacet
  facet normal 0.000000 -1.000000 0.000000
    outer loop
      vertex 12.000000 0.000000 12.000000
      vertex 1.500000 0.000000 9.250000
      vertex 3.500000 0.000000 9.250000
    endloop
  endfacet
  facet normal 0.000000 -1.000000 0.000000
    outer loop
      vertex -3.500000 0.000000 2.750000
      vertex -3.500000 0.000000 9.250000
      vertex -6.500000 0.000000 9.250000
    endloop
  endfacet
  facet normal 0.000000 -1.000000 0.000000
    outer loop
      vertex 12.000000 0.000000 12.000000
      vertex 3.500000 0.000000 9.250000
      vertex 6.500000 0.000000 9.250000
    endloop
  endfacet
  facet normal 0.000000 -1.000000 0.000000
    outer loop
      vertex 12.000000 0.000000 12.000000
      vertex 8.500000 0.000000 9.250000
      vertex 12.000000 0.000000 0.000000
    endloop
  endfacet
  facet normal 0.000000 -1.000000 0.000000
    outer loop
      vertex 12.000000 0.000000 12.000000
      vertex 6.500000 0.000000 9.250000
      vertex 8.500000 0.000000 9.250000
    endloop
  endfacet
  facet normal 0.000000 -1.000000 0.000000
    outer loop
      vertex 6.500000 0.000000 2.750000
      vertex 6.500000 0.000000 9.250000
      vertex 3.500000 0.000000 9.250000
    endloop
  endfacet
  facet normal 0.000000 -1.000000 0.000000
    outer loop
      vertex 6.500000 0.000000 2.750000
      vertex 3.500000 0.000000 2.750000
      vertex 12.000000 0.000000 0.000000
    endloop
  endfacet
  facet normal 0.000000 -1.000000 0.000000
    outer loop
      vertex 3.500000 0.000000 9.250000
      vertex 3.500000 0.000000 2.750000
      vertex 6.500000 0.000000 2.750000
    endloop
  endfacet
  facet normal 0.000000 -1.000000 0.000000
    outer loop
      vertex -1.500000 0.000000 9.250000
      vertex -1.500000 0.000000 2.750000
      vertex 1.500000 0.000000 2.750000
    endloop
  endfacet
  facet normal 0.000000 -1.000000 0.000000
    outer loop
      vertex -6.500000 0.000000 9.250000
      vertex -6.500000 0.000000 2.750000
      vertex -3.500000 0.000000 2.750000
    endloop
  endfacet
  facet normal -0.000000 -0.000000 -1.000000
    outer loop
      vertex -12.000000 0.000000 0.000000
      vertex -12.000000 3.000000 0.000000
      vertex 12.000000 0.000000 0.000000
    endloop
  endfacet
  facet normal 0.000000 0.000000 -1.000000
    outer loop
      vertex 12.000000 0.000000 0.000000
      vertex -12.000000 3.000000 0.000000
      vertex -6.500000 3.000000 0.000000
    endloop
  endfacet
  facet normal 0.000000 0.000000 -1.000000
    outer loop
      vertex -3.500000 3.000000 0.000000
      vertex -6.500000 3.000000 0.000000
      vertex -6.500000 7.000000 0.000000
    endloop
  endfacet
  facet normal 0.000000 0.000000 -1.000000
    outer loop
      vertex 12.000000 0.000000 0.000000
      vertex -6.500000 3.000000 0.000000
      vertex -3.500000 3.000000 0.000000
    endloop
  endfacet
  facet normal 0.000000 0.000000 -1.000000
    outer loop
      vertex 6.500000 3.000000 0.000000
      vertex 12.000000 0.000000 0.000000
      vertex 3.500000 3.000000 0.000000
    endloop
  endfacet
  facet normal 0.000000 0.000000 -1.000000
    outer loop
      vertex 12.000000 0.000000 0.000000
      vertex -3.500000 3.000000 0.000000
      vertex 3.500000 3.000000 0.000000
    endloop
  endfacet
  facet normal 0.000000 0.000000 -1.000000
    outer loop
      vertex 3.500000 7.000000 0.000000
      vertex 6.500000 3.000000 0.000000
      vertex 3.500000 3.000000 0.000000
    endloop
  endfacet
  facet normal 0.000000 0.000000 -1.000000
    outer loop
      vertex 6.500000 3.000000 0.000000
      vertex 3.500000 7.000000 0.000000
      vertex 6.500000 7.000000 0.000000
    endloop
  endfacet
  facet normal 0.000000 0.000000 -1.000000
    outer loop
      vertex 12.000000 3.000000 0.000000
      vertex 12.000000 0.000000 0.000000
      vertex 6.500000 3.000000 0.000000
    endloop
  endfacet
  facet normal 0.000000 0.000000 -1.000000
    outer loop
      vertex -3.500000 3.000000 0.000000
      vertex -6.500000 7.000000 0.000000
      vertex -3.500000 7.000000 0.000000
    endloop
  endfacet
  facet normal 0.000000 -0.000000 1.000000
    outer loop
      vertex -12.000000 3.000000 12.000000
      vertex -12.000000 0.000000 12.000000
      vertex 12.000000 0.000000 12.000000
    endloop
  endfacet
  facet normal 0.000000 -0.000000 1.000000
    outer loop
      vertex 3.500000 3.000000 12.000000
      vertex -3.500000 3.000000 12.000000
      vertex 12.000000 0.000000 12.000000
    endloop
  endfacet
  facet normal 0.000000 -0.000000 1.000000
    outer loop
      vertex 6.500000 3.000000 12.000000
      vertex 3.500000 3.000000 12.000000
      vertex 12.000000 0.000000 12.000000
    endloop
  endfacet
  facet normal 0.000000 0.000000 1.000000
    outer loop
      vertex 12.000000 3.000000 12.000000
      vertex 6.500000 3.000000 12.000000
      vertex 12.000000 0.000000 12.000000
    endloop
  endfacet
  facet normal 0.000000 0.000000 1.000000
    outer loop
      vertex 6.500000 7.000000 12.000000
      vertex 3.500000 3.000000 12.000000
      vertex 6.500000 3.000000 12.000000
    endloop
  endfacet
  facet normal 0.000000 -0.000000 1.000000
    outer loop
      vertex -3.500000 3.000000 12.000000
      vertex -6.500000 3.000000 12.000000
      vertex 12.000000 0.000000 12.000000
    endloop
  endfacet
  facet normal 0.000000 -0.000000 1.000000
    outer loop
      vertex -6.500000 3.000000 12.000000
      vertex -12.000000 3.000000 12.000000
      vertex 12.000000 0.000000 12.000000
    endloop
  endfacet
  facet normal -0.000000 0.000000 1.000000
    outer loop
      vertex -3.500000 3.000000 12.000000
      vertex -3.500000 7.000000 12.000000
      vertex -6.500000 3.000000 12.000000
    endloop
  endfacet
  facet normal 0.000000 -0.000000 1.000000
    outer loop
      vertex -6.500000 7.000000 12.000000
      vertex -6.500000 3.000000 12.000000
      vertex -3.500000 7.000000 12.000000
    endloop
  endfacet
  facet normal 0.000000 -0.000000 1.000000
    outer loop
      vertex 3.500000 7.000000 12.000000
      vertex 3.500000 3.000000 12.000000
      vertex 6.500000 7.000000 12.000000
    endloop
  endfacet
  facet normal 0.000000 1.000000 0.000000
    outer loop
      vertex -6.500000 3.000000 2.750000
      vertex -6.500000 3.000000 0.000000
      vertex -8.500000 3.000000 2.750000
    endloop
  endfacet
  facet normal 0.000000 1.000000 -0.000000
    outer loop
      vertex -8.500000 3.000000 2.750000
      vertex -6.500000 3.000000 0.000000
      vertex -12.000000 3.000000 2.750000
    endloop
  endfacet
  facet normal 0.000000 1.000000 -0.000000
    outer loop
      vertex -12.000000 3.000000 2.750000
      vertex -6.500000 3.000000 0.000000
      vertex -12.000000 3.000000 0.000000
    endloop
  endfacet
  facet normal 0.000000 1.000000 0.000000
    outer loop
      vertex -8.500000 3.000000 9.250000
      vertex -8.500000 3.000000 2.750000
      vertex -12.000000 3.000000 9.250000
    endloop
  endfacet
  facet normal 0.000000 1.000000 -0.000000
    outer loop
      vertex -12.000000 3.000000 9.250000
      vertex -8.500000 3.000000 2.750000
      vertex -12.000000 3.000000 2.750000
    endloop
  endfacet
  facet normal 0.000000 1.000000 0.000000
    outer loop
      vertex -6.500000 3.000000 12.000000
      vertex -6.500000 3.000000 9.250000
      vertex -12.000000 3.000000 12.000000
    endloop
  endfacet
  facet normal 0.000000 1.000000 0.000000
    outer loop
      vertex -12.000000 3.000000 12.000000
      vertex -6.500000 3.000000 9.250000
      vertex -8.500000 3.000000 9.250000
    endloop
  endfacet
  facet normal 0.000000 1.000000 -0.000000
    outer loop
      vertex -12.000000 3.000000 12.000000
      vertex -8.500000 3.000000 9.250000
      vertex -12.000000 3.000000 9.250000
    endloop
  endfacet
  facet normal 1.000000 0.000000 -0.000000
    outer loop
      vertex 12.000000 0.000000 12.000000
      vertex 12.000000 0.000000 0.000000
      vertex 12.000000 3.000000 0.000000
    endloop
  endfacet
  facet normal 1.000000 -0.000000 0.000000
    outer loop
      vertex 12.000000 3.000000 9.250000
      vertex 12.000000 0.000000 12.000000
      vertex 12.000000 3.000000 2.750000
    endloop
  endfacet
  facet normal 1.000000 -0.000000 0.000000
    outer loop
      vertex 12.000000 3.000000 2.750000
      vertex 12.000000 0.000000 12.000000
      vertex 12.000000 3.000000 0.000000
    endloop
  endfacet
  facet normal 1.000000 0.000000 0.000000
    outer loop
      vertex 12.000000 3.000000 12.000000
      vertex 12.000000 0.000000 12.000000
      vertex 12.000000 3.000000 9.250000
    endloop
  endfacet
  facet normal 0.000000 -0.000000 1.000000
    outer loop
      vertex -8.500000 3.000000 2.750000
      vertex -8.500000 0.000000 2.750000
      vertex -6.500000 0.000000 2.750000
    endloop
  endfacet
  facet normal 0.000000 0.000000 1.000000
    outer loop
      vertex -6.500000 3.000000 2.750000
      vertex -8.500000 3.000000 2.750000
      vertex -6.500000 0.000000 2.750000
    endloop
  endfacet
  facet normal 1.000000 0.000000 -0.000000
    outer loop
      vertex -8.500000 0.000000 9.250000
      vertex -8.500000 0.000000 2.750000
      vertex -8.500000 3.000000 2.750000
    endloop
  endfacet
  facet normal 1.000000 0.000000 0.000000
    outer loop
      vertex -8.500000 3.000000 9.250000
      vertex -8.500000 0.000000 9.250000
      vertex -8.500000 3.000000 2.750000
    endloop
  endfacet
  facet normal -1.000000 0.000000 0.000000
    outer loop
      vertex -6.500000 3.000000 9.250000
      vertex -6.500000 3.000000 2.750000
      vertex -6.500000 0.000000 9.250000
    endloop
  endfacet
  facet normal -1.000000 0.000000 0.000000
    outer loop
      vertex -6.500000 0.000000 9.250000
      vertex -6.500000 3.000000 2.750000
      vertex -6.500000 0.000000 2.750000
    endloop
  endfacet
  facet normal -0.000000 -0.000000 -1.000000
    outer loop
      vertex -8.500000 0.000000 9.250000
      vertex -8.500000 3.000000 9.250000
      vertex -6.500000 0.000000 9.250000
    endloop
  endfacet
  facet normal 0.000000 0.000000 -1.000000
    outer loop
      vertex -6.500000 0.000000 9.250000
      vertex -8.500000 3.000000 9.250000
      vertex -6.500000 3.000000 9.250000
    endloop
  endfacet
  facet normal 1.000000 0.000000 0.000000
    outer loop
      vertex -3.500000 3.000000 2.750000
      vertex -3.500000 3.000000 9.250000
      vertex -3.500000 0.000000 9.250000
    endloop
  endfacet
  facet normal 1.000000 0.000000 0.000000
    outer loop
      vertex -3.500000 0.000000 2.750000
      vertex -3.500000 3.000000 2.750000
      vertex -3.500000 0.000000 9.250000
    endloop
  endfacet
  facet normal 0.000000 -0.000000 1.000000
    outer loop
      vertex -3.500000 3.000000 2.750000
      vertex -3.500000 0.000000 2.750000
      vertex -1.500000 0.000000 2.750000
    endloop
  endfacet
  facet normal 0.000000 0.000000 1.000000
    outer loop
      vertex -1.500000 3.000000 2.750000
      vertex -3.500000 3.000000 2.750000
      vertex -1.500000 0.000000 2.750000
    endloop
  endfacet
  facet normal -1.000000 -0.000000 -0.000000
    outer loop
      vertex -1.500000 0.000000 2.750000
      vertex -1.500000 0.000000 9.250000
      vertex -1.500000 3.000000 2.750000
    endloop
  endfacet
  facet normal -1.000000 0.000000 0.000000
    outer loop
      vertex -1.500000 3.000000 2.750000
      vertex -1.500000 0.000000 9.250000
      vertex -1.500000 3.000000 9.250000
    endloop
  endfacet
  facet normal -0.000000 -0.000000 -1.000000
    outer loop
      vertex -3.500000 0.000000 9.250000
      vertex -3.500000 3.000000 9.250000
      vertex -1.500000 0.000000 9.250000
    endloop
  endfacet
  facet normal 0.000000 0.000000 -1.000000
    outer loop
      vertex -1.500000 0.000000 9.250000
      vertex -3.500000 3.000000 9.250000
      vertex -1.500000 3.000000 9.250000
    endloop
  endfacet
  facet normal 1.000000 0.000000 0.000000
    outer loop
      vertex 1.500000 3.000000 2.750000
      vertex 1.500000 3.000000 9.250000
      vertex 1.500000 0.000000 9.250000
    endloop
  endfacet
  facet normal 1.000000 0.000000 0.000000
    outer loop
      vertex 1.500000 0.000000 2.750000
      vertex 1.500000 3.000000 2.750000
      vertex 1.500000 0.000000 9.250000
    endloop
  endfacet
  facet normal 0.000000 0.000000 1.000000
    outer loop
      vertex 3.500000 0.000000 2.750000
      vertex 3.500000 3.000000 2.750000
      vertex 1.500000 3.000000 2.750000
    endloop
  endfacet
  facet normal 0.000000 0.000000 1.000000
    outer loop
      vertex 1.500000 0.000000 2.750000
      vertex 3.500000 0.000000 2.750000
      vertex 1.500000 3.000000 2.750000
    endloop
  endfacet
  facet normal -1.000000 -0.000000 -0.000000
    outer loop
      vertex 3.500000 0.000000 2.750000
      vertex 3.500000 0.000000 9.250000
      vertex 3.500000 3.000000 2.750000
    endloop
  endfacet
  facet normal -1.000000 0.000000 0.000000
    outer loop
      vertex 3.500000 3.000000 2.750000
      vertex 3.500000 0.000000 9.250000
      vertex 3.500000 3.000000 9.250000
    endloop
  endfacet
  facet normal 0.000000 0.000000 -1.000000
    outer loop
      vertex 3.500000 3.000000 9.250000
      vertex 3.500000 0.000000 9.250000
      vertex 1.500000 3.000000 9.250000
    endloop
  endfacet
  facet normal 0.000000 0.000000 -1.000000
    outer loop
      vertex 1.500000 3.000000 9.250000
      vertex 3.500000 0.000000 9.250000
      vertex 1.500000 0.000000 9.250000
    endloop
  endfacet
  facet normal 1.000000 0.000000 -0.000000
    outer loop
      vertex 6.500000 0.000000 9.250000
      vertex 6.500000 0.000000 2.750000
      vertex 6.500000 3.000000 2.750000
    endloop
  endfacet
  facet normal 1.000000 0.000000 0.000000
    outer loop
      vertex 6.500000 3.000000 9.250000
      vertex 6.500000 0.000000 9.250000
      vertex 6.500000 3.000000 2.750000
    endloop
  endfacet
  facet normal 0.000000 0.000000 1.000000
    outer loop
      vertex 8.500000 0.000000 2.750000
      vertex 8.500000 3.000000 2.750000
      vertex 6.500000 3.000000 2.750000
    endloop
  endfacet
  facet normal 0.000000 0.000000 1.000000
    outer loop
      vertex 6.500000 0.000000 2.750000
      vertex 8.500000 0.000000 2.750000
      vertex 6.500000 3.000000 2.750000
    endloop
  endfacet
  facet normal -1.000000 0.000000 0.000000
    outer loop
      vertex 8.500000 3.000000 9.250000
      vertex 8.500000 3.000000 2.750000
      vertex 8.500000 0.000000 9.250000
    endloop
  endfacet
  facet normal -1.000000 0.000000 0.000000
    outer loop
      vertex 8.500000 0.000000 9.250000
      vertex 8.500000 3.000000 2.750000
      vertex 8.500000 0.000000 2.750000
    endloop
  endfacet
  facet normal 0.000000 0.000000 -1.000000
    outer loop
      vertex 8.500000 3.000000 9.250000
      vertex 8.500000 0.000000 9.250000
      vertex 6.500000 3.000000 9.250000
    endloop
  endfacet
  facet normal 0.000000 0.000000 -1.000000
    outer loop
      vertex 6.500000 3.000000 9.250000
      vertex 8.500000 0.000000 9.250000
      vertex 6.500000 0.000000 9.250000
    endloop
  endfacet
  facet normal 0.000000 1.000000 0.000000
    outer loop
      vertex 6.500000 3.000000 0.000000
      vertex 6.500000 3.000000 2.750000
      vertex 12.000000 3.000000 0.000000
    endloop
  endfacet
  facet normal 0.000000 1.000000 0.000000
    outer loop
      vertex 12.000000 3.000000 0.000000
      vertex 6.500000 3.000000 2.750000
      vertex 8.500000 3.000000 2.750000
    endloop
  endfacet
  facet normal 0.000000 1.000000 0.000000
    outer loop
      vertex 12.000000 3.000000 0.000000
      vertex 8.500000 3.000000 2.750000
      vertex 12.000000 3.000000 2.750000
    endloop
  endfacet
  facet normal 1.000000 0.000000 -0.000000
    outer loop
      vertex 6.500000 3.000000 2.750000
      vertex 6.500000 3.000000 0.000000
      vertex 6.500000 7.000000 0.000000
    endloop
  endfacet
  facet normal 1.000000 0.000000 -0.000000
    outer loop
      vertex 6.500000 5.000000 2.750000
      vertex 6.500000 3.000000 2.750000
      vertex 6.500000 7.000000 0.000000
    endloop
  endfacet
  facet normal 1.000000 0.000000 -0.000000
    outer loop
      vertex 6.500000 3.000000 12.000000
      vertex 6.500000 3.000000 9.250000
      vertex 6.500000 7.000000 12.000000
    endloop
  endfacet
  facet normal 1.000000 0.000000 0.000000
    outer loop
      vertex 6.500000 3.000000 9.250000
      vertex 6.500000 5.000000 9.250000
      vertex 6.500000 7.000000 12.000000
    endloop
  endfacet
  facet normal 1.000000 0.000000 0.000000
    outer loop
      vertex 6.500000 7.000000 12.000000
      vertex 6.500000 5.000000 2.750000
      vertex 6.500000 7.000000 0.000000
    endloop
  endfacet
  facet normal 1.000000 0.000000 -0.000000
    outer loop
      vertex 6.500000 5.000000 9.250000
      vertex 6.500000 5.000000 2.750000
      vertex 6.500000 7.000000 12.000000
    endloop
  endfacet
  facet normal 0.000000 1.000000 0.000000
    outer loop
      vertex 3.500000 7.000000 0.000000
      vertex 3.500000 7.000000 12.000000
      vertex 6.500000 7.000000 0.000000
    endloop
  endfacet
  facet normal 0.000000 1.000000 0.000000
    outer loop
      vertex 6.500000 7.000000 0.000000
      vertex 3.500000 7.000000 12.000000
      vertex 6.500000 7.000000 12.000000
    endloop
  endfacet
  facet normal -1.000000 -0.000000 -0.000000
    outer loop
      vertex 3.500000 3.000000 0.000000
      vertex 3.500000 3.000000 2.750000
      vertex 3.500000 7.000000 0.000000
    endloop
  endfacet
  facet normal -1.000000 0.000000 0.000000
    outer loop
      vertex 3.500000 7.000000 0.000000
      vertex 3.500000 3.000000 2.750000
      vertex 3.500000 5.000000 2.750000
    endloop
  endfacet
  facet normal -1.000000 0.000000 0.000000
    outer loop
      vertex 3.500000 7.000000 0.000000
      vertex 3.500000 5.000000 2.750000
      vertex 3.500000 5.000000 9.250000
    endloop
  endfacet
  facet normal -1.000000 0.000000 0.000000
    outer loop
      vertex 3.500000 5.000000 9.250000
      vertex 3.500000 3.000000 9.250000
      vertex 3.500000 3.000000 12.000000
    endloop
  endfacet
  facet normal -1.000000 0.000000 -0.000000
    outer loop
      vertex 3.500000 5.000000 9.250000
      vertex 3.500000 3.000000 12.000000
      vertex 3.500000 7.000000 12.000000
    endloop
  endfacet
  facet normal -1.000000 -0.000000 0.000000
    outer loop
      vertex 3.500000 5.000000 9.250000
      vertex 3.500000 7.000000 12.000000
      vertex 3.500000 7.000000 0.000000
    endloop
  endfacet
  facet normal 0.000000 1.000000 0.000000
    outer loop
      vertex -3.500000 3.000000 0.000000
      vertex -3.500000 3.000000 2.750000
      vertex 3.500000 3.000000 0.000000
    endloop
  endfacet
  facet normal 0.000000 1.000000 0.000000
    outer loop
      vertex 3.500000 3.000000 0.000000
      vertex -3.500000 3.000000 2.750000
      vertex -1.500000 3.000000 2.750000
    endloop
  endfacet
  facet normal 0.000000 1.000000 0.000000
    outer loop
      vertex 3.500000 3.000000 0.000000
      vertex -1.500000 3.000000 2.750000
      vertex 1.500000 3.000000 2.750000
    endloop
  endfacet
  facet normal 0.000000 1.000000 0.000000
    outer loop
      vertex 3.500000 3.000000 0.000000
      vertex 1.500000 3.000000 2.750000
      vertex 3.500000 3.000000 2.750000
    endloop
  endfacet
  facet normal 1.000000 0.000000 0.000000
    outer loop
      vertex -3.500000 5.000000 9.250000
      vertex -3.500000 7.000000 12.000000
      vertex -3.500000 3.000000 12.000000
    endloop
  endfacet
  facet normal 1.000000 0.000000 -0.000000
    outer loop
      vertex -3.500000 5.000000 9.250000
      vertex -3.500000 5.000000 2.750000
      vertex -3.500000 7.000000 0.000000
    endloop
  endfacet
  facet normal 1.000000 0.000000 0.000000
    outer loop
      vertex -3.500000 7.000000 0.000000
      vertex -3.500000 7.000000 12.000000
      vertex -3.500000 5.000000 9.250000
    endloop
  endfacet
  facet normal 1.000000 0.000000 0.000000
    outer loop
      vertex -3.500000 3.000000 2.750000
      vertex -3.500000 7.000000 0.000000
      vertex -3.500000 5.000000 2.750000
    endloop
  endfacet
  facet normal 1.000000 0.000000 0.000000
    outer loop
      vertex -3.500000 3.000000 0.000000
      vertex -3.500000 7.000000 0.000000
      vertex -3.500000 3.000000 2.750000
    endloop
  endfacet
  facet normal 1.000000 0.000000 0.000000
    outer loop
      vertex -3.500000 3.000000 9.250000
      vertex -3.500000 5.000000 9.250000
      vertex -3.500000 3.000000 12.000000
    endloop
  endfacet
  facet normal 0.000000 1.000000 0.000000
    outer loop
      vertex -3.500000 7.000000 12.000000
      vertex -3.500000 7.000000 0.000000
      vertex -6.500000 7.000000 12.000000
    endloop
  endfacet
  facet normal 0.000000 1.000000 -0.000000
    outer loop
      vertex -6.500000 7.000000 12.000000
      vertex -3.500000 7.000000 0.000000
      vertex -6.500000 7.000000 0.000000
    endloop
  endfacet
  facet normal -1.000000 0.000000 0.000000
    outer loop
      vertex -6.500000 3.000000 12.000000
      vertex -6.500000 5.000000 9.250000
      vertex -6.500000 3.000000 9.250000
    endloop
  endfacet
  facet normal -1.000000 0.000000 0.000000
    outer loop
      vertex -6.500000 7.000000 12.000000
      vertex -6.500000 5.000000 9.250000
      vertex -6.500000 3.000000 12.000000
    endloop
  endfacet
  facet normal -1.000000 0.000000 -0.000000
    outer loop
      vertex -6.500000 5.000000 2.750000
      vertex -6.500000 5.000000 9.250000
      vertex -6.500000 7.000000 12.000000
    endloop
  endfacet
  facet normal -1.000000 -0.000000 0.000000
    outer loop
      vertex -6.500000 5.000000 2.750000
      vertex -6.500000 7.000000 12.000000
      vertex -6.500000 7.000000 0.000000
    endloop
  endfacet
  facet normal -1.000000 0.000000 0.000000
    outer loop
      vertex -6.500000 5.000000 2.750000
      vertex -6.500000 7.000000 0.000000
      vertex -6.500000 3.000000 2.750000
    endloop
  endfacet
  facet normal -1.000000 0.000000 0.000000
    outer loop
      vertex -6.500000 7.000000 0.000000
      vertex -6.500000 3.000000 0.000000
      vertex -6.500000 3.000000 2.750000
    endloop
  endfacet
  facet normal 0.000000 1.000000 0.000000
    outer loop
      vertex -3.500000 3.000000 9.250000
      vertex -3.500000 3.000000 12.000000
      vertex -1.500000 3.000000 9.250000
    endloop
  endfacet
  facet normal 0.000000 1.000000 0.000000
    outer loop
      vertex -1.500000 3.000000 9.250000
      vertex -3.500000 3.000000 12.000000
      vertex 3.500000 3.000000 12.000000
    endloop
  endfacet
  facet normal 0.000000 1.000000 0.000000
    outer loop
      vertex 1.500000 3.000000 9.250000
      vertex 3.500000 3.000000 12.000000
      vertex 3.500000 3.000000 9.250000
    endloop
  endfacet
  facet normal 0.000000 1.000000 0.000000
    outer loop
      vertex -1.500000 3.000000 9.250000
      vertex 3.500000 3.000000 12.000000
      vertex 1.500000 3.000000 9.250000
    endloop
  endfacet
  facet normal 0.000000 1.000000 0.000000
    outer loop
      vertex 6.500000 3.000000 9.250000
      vertex 6.500000 3.000000 12.000000
      vertex 8.500000 3.000000 9.250000
    endloop
  endfacet
  facet normal 0.000000 1.000000 0.000000
    outer loop
      vertex 8.500000 3.000000 9.250000
      vertex 6.500000 3.000000 12.000000
      vertex 12.000000 3.000000 12.000000
    endloop
  endfacet
  facet normal 0.000000 1.000000 0.000000
    outer loop
      vertex 8.500000 3.000000 9.250000
      vertex 12.000000 3.000000 12.000000
      vertex 12.000000 3.000000 9.250000
    endloop
  endfacet
  facet normal 0.000000 -0.000000 1.000000
    outer loop
      vertex -6.500000 5.000000 2.750000
      vertex -6.500000 3.000000 2.750000
      vertex -3.500000 3.000000 2.750000
    endloop
  endfacet
  facet normal 0.000000 0.000000 1.000000
    outer loop
      vertex -3.500000 5.000000 2.750000
      vertex -6.500000 5.000000 2.750000
      vertex -3.500000 3.000000 2.750000
    endloop
  endfacet
  facet normal 0.000000 1.000000 0.000000
    outer loop
      vertex -6.500000 3.000000 2.750000
      vertex -6.500000 3.000000 9.250000
      vertex -3.500000 3.000000 2.750000
    endloop
  endfacet
  facet normal 0.000000 1.000000 0.000000
    outer loop
      vertex -3.500000 3.000000 2.750000
      vertex -6.500000 3.000000 9.250000
      vertex -3.500000 3.000000 9.250000
    endloop
  endfacet
  facet normal -0.000000 -0.000000 -1.000000
    outer loop
      vertex -6.500000 3.000000 9.250000
      vertex -6.500000 5.000000 9.250000
      vertex -3.500000 3.000000 9.250000
    endloop
  endfacet
  facet normal 0.000000 0.000000 -1.000000
    outer loop
      vertex -3.500000 3.000000 9.250000
      vertex -6.500000 5.000000 9.250000
      vertex -3.500000 5.000000 9.250000
    endloop
  endfacet
  facet normal 0.000000 1.000000 0.000000
    outer loop
      vertex 8.500000 3.000000 2.750000
      vertex 8.500000 3.000000 9.250000
      vertex 12.000000 3.000000 2.750000
    endloop
  endfacet
  facet normal 0.000000 1.000000 0.000000
    outer loop
      vertex 12.000000 3.000000 2.750000
      vertex 8.500000 3.000000 9.250000
      vertex 12.000000 3.000000 9.250000
    endloop
  endfacet
  facet normal 0.000000 1.000000 0.000000
    outer loop
      vertex -1.500000 3.000000 2.750000
      vertex -1.500000 3.000000 9.250000
      vertex 1.500000 3.000000 2.750000
    endloop
  endfacet
  facet normal 0.000000 1.000000 0.000000
    outer loop
      vertex 1.500000 3.000000 2.750000
      vertex -1.500000 3.000000 9.250000
      vertex 1.500000 3.000000 9.250000
    endloop
  endfacet
  facet normal 0.000000 0.000000 1.000000
    outer loop
      vertex 6.500000 3.000000 2.750000
      vertex 6.500000 5.000000 2.750000
      vertex 3.500000 5.000000 2.750000
    endloop
  endfacet
  facet normal 0.000000 0.000000 1.000000
    outer loop
      vertex 3.500000 3.000000 2.750000
      vertex 6.500000 3.000000 2.750000
      vertex 3.500000 5.000000 2.750000
    endloop
  endfacet
  facet normal 0.000000 1.000000 0.000000
    outer loop
      vertex 6.500000 3.000000 9.250000
      vertex 6.500000 3.000000 2.750000
      vertex 3.500000 3.000000 9.250000
    endloop
  endfacet
  facet normal 0.000000 1.000000 -0.000000
    outer loop
      vertex 3.500000 3.000000 9.250000
      vertex 6.500000 3.000000 2.750000
      vertex 3.500000 3.000000 2.750000
    endloop
  endfacet
  facet normal 0.000000 0.000000 -1.000000
    outer loop
      vertex 6.500000 5.000000 9.250000
      vertex 6.500000 3.000000 9.250000
      vertex 3.500000 5.000000 9.250000
    endloop
  endfacet
  facet normal 0.000000 0.000000 -1.000000
    outer loop
      vertex 3.500000 5.000000 9.250000
      vertex 6.500000 3.000000 9.250000
      vertex 3.500000 3.000000 9.250000
    endloop
  endfacet
  facet normal 0.000000 -1.000000 0.000000
    outer loop
      vertex 6.500000 5.000000 2.750000
      vertex 6.500000 5.000000 9.250000
      vertex 3.500000 5.000000 9.250000
    endloop
  endfacet
  facet normal -0.000000 -1.000000 -0.000000
    outer loop
      vertex 3.500000 5.000000 2.750000
      vertex 6.500000 5.000000 2.750000
      vertex 3.500000 5.000000 9.250000
    endloop
  endfacet
  facet normal 0.000000 -1.000000 0.000000
    outer loop
      vertex -6.500000 5.000000 9.250000
      vertex -6.500000 5.000000 2.750000
      vertex -3.500000 5.000000 2.750000
    endloop
  endfacet
  facet normal 0.000000 -1.000000 0.000000
    outer loop
      vertex -3.500000 5.000000 9.250000
      vertex -6.500000 5.000000 9.250000
      vertex -3.500000 5.000000 2.750000
    endloop
  endfacet
endsolid OpenSCAD_Model
